<svg id="Layer_1" data-name="Layer 1" xmlns="http://www.w3.org/2000/svg" viewBox="0 0 800 800"><defs><style>.cls-1{fill:#e6f5fc;}.cls-2{fill:#97daf2;opacity:0.75;}</style></defs><path class="cls-1" d="M724.81,566q-.39-75.15-.8-150.31c0-7.23,0-14.46,0-21.68,0-58.66-.15-117.32,0-176,0-8-2.92-13.4-9.88-17.24-11.74-6.5-23.25-13.41-34.9-20.07-13.68-7.82-27.43-15.51-41.09-23.36-13.21-7.58-26.34-15.29-39.51-22.93q-23.72-13.75-47.45-27.48-16.46-9.54-32.93-19.06Q495.39,74.75,472.51,61.7C469.22,59.83,466,58,461.87,58q-61.85.15-123.69,0A15.44,15.44,0,0,0,329,60.92c-1.33.94-2.71,1.82-4.12,2.63l-2.09,1.2-1,.58-.06,0v42s0,0,.06,0c.65.45,1,1.4,1,2.87.13,6.35,0,12.71,0,19.07a5.43,5.43,0,0,1,0,.71,4.58,4.58,0,0,1-.89,2.32V136h-.16V245.2l.06,0a1.35,1.35,0,0,1,.25.28,5.77,5.77,0,0,1,.68,2.75c.05.62.07,1.24.07,1.86,0,.83,0,1.67,0,2.5q0,7.83,0,15.67c.05,15.68.14,31.36,0,47,0,.54,0,1.09,0,1.63q-.06,8.16-.23,16.3a18.77,18.77,0,0,0,.25,3.57c.06.34.12.67.2,1,1.93,8.69,9.93,13.59,17.58,13.5,16.35-.18,32.7,0,49.05,0,23,0,46.07-.08,69.1,0,5.83,0,10.56-1.74,14.58-6a14.68,14.68,0,0,0,4.29-10.25c0-4.18,0-8.36,0-12.53q0-35.43-.05-70.84c0-1.09-.05-2.18,0-3.26.26-3.65,1.06-4.2,4.38-2.37,8.1,4.46,16.13,9.07,24.14,13.69,10.36,6,20.67,12.07,31,18.1,9.08,5.29,18.08,10.74,27.31,15.75,3.55,1.93,4.78,4.28,4.76,8.2-.15,23.07-.09,46.13-.1,69.2q0,55.31-.07,110.6a37.44,37.44,0,0,0,0,3.82c.37,3.54-1.25,5.78-4.26,7.47-7.44,4.17-14.8,8.49-22.18,12.75q-23.1,13.32-46.21,26.63c-5.39,3.11-10.81,6.14-17.38,9.88l-.34.19c-.11-3.19-.24-5.31-.25-7.43q0-27.57,0-55.16v243l.62-.36q2.26-1.32,4.54-2.63,40.27-23.32,80.56-46.62c15.86-9.16,31.8-18.2,47.7-27.3q19.11-11,38.22-22,23.57-13.58,47.13-27.18,9.2-5.31,18.35-10.67c5.59-3.26,8.5-8.26,9.23-14.57A45,45,0,0,0,724.81,566ZM689,316.29,688.91,549a23.77,23.77,0,0,0,0,3.27c.69,5.18-1.53,8.15-6.15,10.74-22.14,12.43-44,25.28-66.07,37.93-20.6,11.84-41.25,23.58-61.84,35.44-13.84,8-27.6,16.07-41.42,24.07q-14.36,8.31-28.8,16.48c-1.55.88-3.22,1.54-5.54,2.63,0-.18-.07-.36-.11-.52a17.09,17.09,0,0,1-.52-2.83c0-7.09,0-14.17-.07-21.25a6.2,6.2,0,0,1,.59-3,6.53,6.53,0,0,1,2.76-2.63q37.23-21.51,74.32-43.27a38.29,38.29,0,0,0,8.11-6.32c9.19-9.51,4.39-25.84-8.46-29a19.49,19.49,0,0,0-15.2,2.19c-12,7.18-24.07,14.19-36.14,21.22q-9.87,5.76-19.84,11.35c-1.56.88-3.24,1.55-5.55,2.61l-.48.22c0-7.91-.22-15,.17-22a2.51,2.51,0,0,1,.31-1,9.48,9.48,0,0,1,3.4-3.22c8.6-5,17.39-9.8,26-14.79,12.25-7.07,24.41-14.32,36.66-21.4,13-7.55,26.12-15,39.18-22.48,3.77-2.17,7.6-4.26,11.31-6.54a18.48,18.48,0,0,0,9.29-16.74c0-27.42.08-54.85,0-82.28-.2-43.89-.63-87.79-.7-131.69,0-7.85-3.38-13.15-9.77-16.88-11.28-6.57-22.63-13-34-19.47Q533,234.26,505.58,218.65c-8.65-5-17.19-10.13-25.83-15.1-4.23-2.44-8.48-4.91-12.92-6.92-5.64-2.54-15.13-2.14-20.42,4.35a17.28,17.28,0,0,0-3.79,11.59c.07,31.24,0,62.48,0,93.72,0,10.89-.63,9.07-9.28,9.11-23.07.09-46.14,0-69.21,0l-3.27,0c-2.31,0-3.25-1.23-3.2-3.43,0-1.09,0-2.18,0-3.27q-.06-104.61-.12-209.24c0-7.68,0-7.7,7.45-7.7,28.16,0,56.32,0,84.48,0a17.85,17.85,0,0,1,9.74,2.62c10.72,6.44,21.67,12.51,32.53,18.72,10.54,6,21.11,12,31.61,18Q554.2,148.91,585,166.81c11,6.37,21.9,12.83,32.88,19.19q25,14.42,50,28.75c5.18,3,10.3,6.09,15.59,8.85,4.12,2.16,5.83,4.94,5.78,9.87C688.92,261.08,689.05,288.69,689,316.29Z"/><path class="cls-2" d="M321.9,132.34l-.17,43a1.18,1.18,0,0,0-.41-.19c-.73-.22-1.79.06-3.21.81-3.85,2-7.56,4.31-11.32,6.5C288.17,193.26,269.5,204,250.94,215a16.9,16.9,0,0,1-13.5,2c-8.85-2.36-13.19-8.69-13.47-16.42-.26-7.24,3.68-12.7,9.94-16.34,5.17-3,10.37-6,15.55-9q20-11.6,40-23.22c10-5.85,20-11.78,30-17.64h0a8.71,8.71,0,0,0,1.45-1,5.68,5.68,0,0,0,.84-.86l.06-.07Z"/><path class="cls-2" d="M478.38,470.58V722.75c-.26.14-.51.29-.76.44q-3.15,1.84-6.29,3.7a26.54,26.54,0,0,1-14,3.77q-57.5-.13-115,0a23.46,23.46,0,0,1-12.45-3.18c-9.21-5.45-18.5-10.77-27.78-16.11-11.94-6.87-23.93-13.68-35.86-20.58-9.74-5.62-19.4-11.38-29.15-17-14-8-28.08-15.92-42.06-24-22.95-13.24-45.82-26.59-68.76-39.84-13.19-7.61-26.45-15.12-39.69-22.64-7.8-4.43-11.5-10.85-11.47-20,.16-57.75.08-115.5.08-173.25h.2q0-86.08,0-172.17a64.15,64.15,0,0,1,1-9.14c.75-5.06,3.82-8.57,8.07-11,11-6.33,22.1-12.49,33.11-18.81S139.87,170,151,163.52q13.65-7.91,27.31-15.77L216,126.05c8.48-4.89,16.94-9.81,25.43-14.67l11-6.27,3.19-1.82q7.57-4.31,15.14-8.64l3.74-2.13c11-6.26,26.42-15.09,45.42-26.08l1.85-1.07v42h0a1.9,1.9,0,0,0-1.09-.26,3.75,3.75,0,0,0-1.12.19l-.11,0a5.52,5.52,0,0,0-.87.32,65.44,65.44,0,0,0-7.21,3.82c-13.12,7.69-26.17,15.49-39.33,23.11-11.29,6.54-22.7,12.89-34.06,19.32-8.2,4.65-16.44,9.25-24.6,14-8,4.62-15.87,9.43-23.86,14-9,5.17-18,10.15-27,15.33-12.4,7.16-24.74,14.44-37.12,21.65-3.29,1.92-6.59,3.81-10,5.62-3,1.61-4.78,3.78-4.22,7.41a20.84,20.84,0,0,1,0,3.26v158h.14V519c0,11.8.16,23.61-.06,35.41-.08,4,1.38,6.36,5,8,3.93,1.85,7.63,4.18,11.39,6.37,14.76,8.55,29.46,17.18,44.25,25.68,19.19,11,38.48,21.86,57.66,32.9s38.25,22.3,57.43,33.35c18.55,10.68,37.21,21.16,55.75,31.88a13.6,13.6,0,0,0,7.18,1.89q42.5-.06,85,0l3.82,0c2,0,2.94-1.08,2.93-3.06s0-4,0-6q0-40.59,0-81.18,0-63.21,0-126.41c0-6.49-.08-6.57-6.8-6.6-9.08,0-18.17-.05-27.25,0-4.34,0-8.68.35-13,.33-10.89-.05-21.78-.28-32.67-.3-3.56,0-4.22.67-4.25,4.12,0,3.8.44,7.6.41,11.4-.07,11.25-.32,22.5-.42,33.75,0,2.7.37,5.4.39,8.1.09,12.15.17,24.29.15,36.43,0,4-.32,8-.46,11.93-.43,11.44-15.63,19.42-27.06,12.82-12.73-7.35-25.53-14.57-38.27-21.89q-23.6-13.56-47.15-27.2-19.78-11.44-39.54-23a31.92,31.92,0,0,1-4.5-3c-5-4.21-6.23-9.81-6.22-16.12q.17-104.89.05-209.77c0-9.5,4-15.83,11.9-20.31q16.32-9.23,32.6-18.55c2.52-1.43,5-2.83,7.55-4.28,8.78-5.1,17.53-10.26,26.33-15.32q22.88-13.15,45.81-26.2a7.62,7.62,0,0,0,2.2-1.76s.28,42.9.19,42.82l-.06,0a.57.57,0,0,0-.13-.08.69.69,0,0,0-.15-.07l-.16-.05a.86.86,0,0,0-.17,0,5.35,5.35,0,0,0-2.79,1c-7.13,4-14.27,7.93-21.34,12-20.26,11.7-40.45,23.51-60.75,35.14-3.54,2-5.11,4.46-5.1,8.67q.21,91,.06,182c0,5.11,1.86,8,6.09,10.4,10.6,5.93,21.07,12.11,31.59,18.19Q292.43,526,316,539.57c1.51.88,3.18,1.49,5.55,2.58.15-2.49.34-4.23.34-6,0-7.63,0-15.26,0-22.88,0-19.62-.08-39.23,0-58.85.08-11.45,7.82-19.21,19.16-19.23q59.11-.11,118.24,0c10,0,16.83,6.11,18.26,16.08,0,.11,0,.22.05.34a77.39,77.39,0,0,1,.69,9.74Q478.38,466,478.38,470.58Z"/></svg>